HIERARCHY
ROOT Hips
{
	OFFSET 0.000000 0.000000 0.000000
	CHANNELS 6 Xposition Yposition Zposition Zrotation Yrotation Xrotation 
	JOINT LHipJoint
	{
		OFFSET 0.000000 0.000000 0.000000
		CHANNELS 3 Zrotation Yrotation Xrotation
		JOINT LeftUpLeg
		{
			OFFSET 1.363060 -1.794630 0.839290
			CHANNELS 3 Zrotation Yrotation Xrotation
			JOINT LeftLeg
			{
				OFFSET 2.448110 -6.726130 0.000000
				CHANNELS 3 Zrotation Yrotation Xrotation
				JOINT LeftFoot
				{
					OFFSET 2.562200 -7.039590 0.000000
					CHANNELS 3 Zrotation Yrotation Xrotation
					JOINT LeftToeBase
					{
						OFFSET 0.157640 -0.433110 2.322550
						CHANNELS 3 Zrotation Yrotation Xrotation
						End Site
						{
							OFFSET 0.000000 0.000000 0.000000
						}
					}
				}
			}
		}
	}
	JOINT RHipJoint
	{
		OFFSET 0.000000 0.000000 0.000000
		CHANNELS 3 Zrotation Yrotation Xrotation
		JOINT RightUpLeg
		{
			OFFSET -1.305520 -1.794630 0.839290
			CHANNELS 3 Zrotation Yrotation Xrotation
			JOINT RightLeg
			{
				OFFSET -2.542530 -6.985550 0.000000
				CHANNELS 3 Zrotation Yrotation Xrotation
				JOINT RightFoot
				{
					OFFSET -2.568260 -7.056230 0.000000
					CHANNELS 3 Zrotation Yrotation Xrotation
					JOINT RightToeBase
					{
						OFFSET -0.164730 -0.452590 2.363150
						CHANNELS 3 Zrotation Yrotation Xrotation
						End Site
						{
							OFFSET 0.000000 0.000000 0.000000
						}
					}
				}
			}
		}
	}
}
MOTION
Frames: 30
Frame Time: 0.008333
23.807476 14.318837 1.923604 -119.678706 -88.458315 161.377580 -7.120782 0.049612 2.544154 -13.648620 -10.167835 -99.378710 -0.146009 6.478887 68.643798 1.823435 4.755851 -14.262252 -0.304600 0.000000 -21.487100 11.269441 -2.169866 -2.841528 11.825872 -6.458201 -13.128284 2.091399 -0.858639 32.927726 -0.961760 -1.860520 -14.470681 0.474700 -0.000000 -79.857300
23.567493 14.291313 1.908506 -120.056904 -88.544543 161.463466 -7.126179 0.122783 2.368350 -14.257624 -9.739546 -98.790547 -0.055431 6.612535 70.203330 1.792276 4.428976 -15.400336 -0.450600 0.000000 -20.103700 11.423321 -2.287379 -2.818784 11.519830 -7.005348 -12.684454 1.876359 -0.966353 33.468700 -0.833300 -1.911701 -11.971186 0.283300 -0.000000 -80.513800
23.330947 14.268124 1.895477 -119.414008 -88.550386 160.558752 -7.099299 0.204879 2.206866 -14.785464 -9.284902 -98.166964 0.025736 6.719160 71.641666 1.803340 4.243231 -16.664333 -0.607200 -0.000001 -18.875500 11.621649 -2.378769 -2.801187 11.253611 -7.549397 -12.520714 1.649642 -1.091655 34.397081 -0.746191 -2.044437 -9.656835 0.122300 -0.000000 -80.149500
23.098437 14.249823 1.884532 -118.086570 -88.495003 159.008560 -7.051128 0.285146 2.061983 -15.217529 -8.822874 -97.517808 0.100014 6.799327 72.950910 1.851734 4.197370 -17.985899 -0.775701 0.000000 -17.913500 11.847843 -2.440353 -2.792480 11.035136 -8.078897 -12.645869 1.417505 -1.228756 35.723279 -0.709649 -2.310625 -7.658595 -0.010100 -0.000000 -78.796500
22.870657 14.236998 1.875638 -116.280508 -88.396568 157.020887 -6.989410 0.353860 1.933302 -15.545178 -8.369594 -96.846736 0.168795 6.853065 74.123496 1.930154 4.277406 -19.305622 -0.957600 0.000000 -17.294200 12.088430 -2.469755 -2.796859 10.876112 -8.581727 -13.054678 1.187245 -1.373787 37.439177 -0.729295 -2.766097 -6.090248 -0.121800 0.000000 -76.555400
22.648184 14.230170 1.868660 -114.167453 -88.272280 154.763081 -6.921635 0.403361 1.817940 -15.768884 -7.936213 -96.150081 0.231974 6.880978 75.152519 2.029936 4.460222 -20.577099 -1.152100 -0.000000 -17.048800 12.330343 -2.466548 -2.819078 10.786716 -9.047757 -13.729930 0.965937 -1.525725 39.520382 -0.807187 -3.458848 -5.033138 -0.221400 -0.000000 -73.564700
22.431768 14.229710 1.863455 -111.888804 -88.136470 152.371456 -6.854957 0.429236 1.711754 -15.895926 -7.527887 -95.419420 0.288062 6.884522 76.032554 2.142204 4.717316 -21.769567 -1.356500 0.000000 -17.163400 12.562279 -2.432382 -2.863503 10.773316 -9.471517 -14.646985 0.759218 -1.685968 41.928062 -0.942907 -4.419501 -4.527631 -0.310400 0.000000 -69.968200
22.221384 14.235843 1.859848 -109.568448 -87.999445 149.959809 -6.795672 0.430184 1.609397 -15.939938 -7.144101 -94.642607 0.334694 6.865950 76.760394 2.258879 5.019107 -22.867391 -1.566300 0.000000 -17.586900 12.775024 -2.370240 -2.933778 10.837406 -9.851945 -15.776759 0.570478 -1.857727 44.612665 -1.134303 -5.652738 -4.573612 -0.377500 0.000000 -65.892799
22.017581 14.248689 1.857695 -107.314275 -87.868110 147.623045 -6.748998 0.407554 1.505119 -15.918108 -6.778799 -93.805560 0.369057 6.828166 77.334997 2.373604 5.339188 -23.868660 -1.776800 0.000000 -18.238000 12.961888 -2.284000 -3.032083 10.975616 -10.191970 -17.088751 0.400570 -2.044745 47.516635 -1.377678 -7.135154 -5.135335 -0.398100 0.000000 -61.428200
21.819757 14.268035 1.856856 -105.167291 -87.745453 145.392769 -6.717189 0.364748 1.393773 -15.849305 -6.424125 -92.896270 0.388683 6.773992 77.759026 2.482128 5.656973 -24.780578 -1.984001 0.000000 -19.031700 13.121038 -2.178151 -3.157849 11.181167 -10.496400 -18.556996 0.248365 -2.250357 50.579028 -1.666938 -8.816180 -6.150694 -0.339100 -0.000000 -56.636500
21.627846 14.293466 1.857271 -103.159522 -87.631215 143.292615 -6.701914 0.305088 1.271126 -15.749133 -6.070103 -91.907290 0.391804 6.706464 78.038865 2.582591 5.959514 -25.619405 -2.185900 -0.000000 -19.861400 13.251418 -2.057625 -3.308141 11.447666 -10.767018 -20.159057 0.111170 -2.476797 53.737406 -1.992702 -10.623930 -7.539651 -0.167100 -0.000000 -51.556900
21.441256 14.324456 1.858750 -101.052310 -87.524131 141.079263 -6.694696 0.230590 1.133408 -15.635306 -5.711325 -90.833317 0.377998 6.625327 78.182893 2.674872 6.243051 -26.394064 -2.381800 0.000000 -20.697000 13.364261 -1.928519 -3.476331 11.765570 -11.007681 -21.883799 -0.013221 -2.727272 56.933237 -2.340777 -12.466951 -9.213433 0.142800 0.000000 -46.208400
21.259441 14.360185 1.861282 -98.621213 -87.421913 138.528629 -6.690094 0.139361 0.978786 -15.516508 -5.344603 -89.676960 0.348044 6.530244 78.204308 2.760462 6.509423 -27.119746 -2.573400 0.000000 -21.477900 13.466062 -1.798582 -3.654284 12.130679 -11.214189 -23.724329 -0.127297 -3.004496 60.111539 -2.693668 -14.248686 -11.078225 0.597600 0.000000 -40.667500
21.081484 14.399692 1.864904 -95.569218 -87.322023 135.347876 -6.683582 0.024548 0.806705 -15.394112 -4.970295 -88.449327 0.304105 6.420114 78.120916 2.841730 6.764743 -27.811433 -2.764000 0.000000 -22.140501 13.560978 -1.677480 -3.833091 12.544330 -11.377074 -25.681386 -0.233241 -3.311795 63.225334 -3.031831 -15.873105 -13.041160 1.181900 -0.000000 -35.044700
20.906767 14.441934 1.869575 -91.202809 -87.229066 130.853941 -6.666390 -0.131871 0.616488 -15.270236 -4.601941 -87.159276 0.249482 6.288565 77.950611 2.920800 7.017845 -28.471806 -2.956300 0.000000 -22.705401 13.657475 -1.582413 -4.003117 13.005253 -11.490875 -27.764992 -0.330899 -3.658097 66.232960 -3.335279 -17.250981 -15.009022 1.855200 0.000000 -29.531200
20.734484 14.485954 1.875286 -84.463639 -87.161150 123.999418 -6.641592 -0.368708 0.406577 -15.146998 -4.267126 -85.812219 0.187972 6.126085 77.712622 2.999037 7.276483 -29.101742 -3.153200 0.000000 -23.182300 13.748747 -1.544955 -4.157995 13.509957 -11.555466 -29.992640 -0.418407 -4.060517 69.098770 -3.586394 -18.308483 -16.891611 2.556000 0.000000 -24.385699
20.564020 14.530770 1.882071 -73.544501 -87.168795 112.994569 -6.651575 -0.760979 0.175989 -15.041553 -4.017905 -84.400335 0.122211 5.921717 77.420351 3.076001 7.546426 -29.697156 -3.356300 -0.000000 -23.601400 13.782742 -1.625525 -4.298104 14.034386 -11.587259 -32.394861 -0.492372 -4.548229 71.794590 -3.772205 -18.991695 -18.610044 3.213000 0.000000 -19.883000
20.394913 14.575609 1.889966 -55.808790 -87.375240 95.218601 -6.858524 -1.402904 -0.064968 -15.019082 -3.910124 -82.905413 0.048531 5.689023 77.063160 3.148621 7.835278 -30.254297 -3.565800 0.000000 -23.989000 13.574249 -1.903475 -4.435952 14.491237 -11.611782 -35.009553 -0.558866 -5.138413 74.318991 -3.887171 -19.268100 -20.107871 3.759600 -0.000000 -16.243700
20.230809 14.625190 1.885954 -11.944591 -89.487815 51.257226 -8.100085 -2.319521 -0.476389 -16.025797 -3.176329 -81.093860 -0.154301 5.692518 76.413617 3.209500 8.152169 -30.937643 -3.812600 0.000000 -24.161500 12.225544 -2.371272 -4.488018 13.845416 -11.009652 -37.785360 -0.734067 -5.695682 76.964654 -3.933022 -19.104896 -21.333221 4.126800 0.000000 -13.697799
20.063298 14.668374 1.895701 177.490442 -89.779203 -138.248497 -8.539280 -2.253007 -0.597712 -16.000501 -2.570096 -79.912796 -0.252517 5.725267 75.914838 3.291924 8.499282 -31.484195 -4.029600 -0.000000 -24.574499 11.763342 -2.100988 -4.518097 14.250479 -10.438221 -40.387215 -0.965959 -5.832391 79.314549 -3.904249 -18.602671 -22.300198 4.338999 0.000000 -12.003401
19.896206 14.710433 1.906549 -173.963217 -89.001554 -146.858985 -8.878622 -2.082499 -0.716663 -15.894674 -1.902048 -78.794813 -0.347726 5.771483 75.415739 3.372844 8.842111 -31.999792 -4.243600 -0.000000 -25.067900 11.400802 -1.730169 -4.497876 14.735273 -9.678157 -43.028244 -1.200339 -5.906059 81.468833 -3.815185 -17.810578 -23.011618 4.385600 -0.000000 -11.197400
19.729271 14.751203 1.918167 -166.541104 -88.260450 -154.333820 -9.099712 -1.869986 -0.845671 -15.711394 -1.220780 -77.708762 -0.438060 5.808030 74.928263 3.449408 9.166004 -32.486698 -4.451500 0.000001 -25.600299 11.152347 -1.304003 -4.433475 15.288626 -8.770111 -45.707545 -1.421296 -5.959182 83.399941 -3.682056 -16.816927 -23.512147 4.301700 -0.000000 -11.059900
19.562672 14.790837 1.930406 -160.051944 -87.594281 -160.865360 -9.224692 -1.662861 -0.992295 -15.463777 -0.553488 -76.624817 -0.523599 5.824892 74.451928 3.518169 9.460486 -32.940939 -4.648500 -0.000000 -26.192400 10.988553 -0.860226 -4.334529 15.884893 -7.751650 -48.414664 -1.620145 -6.017895 85.085094 -3.526055 -15.727296 -23.854935 4.134400 0.000000 -11.351800
19.395846 14.829485 1.942956 -154.351238 -87.024334 -166.601665 -9.281916 -1.488891 -1.160981 -15.172717 0.084218 -75.519063 -0.605980 5.818712 73.981994 3.576926 9.717078 -33.365904 -4.831800 -0.000000 -26.810900 10.874621 -0.424671 -4.210806 16.491880 -6.658313 -51.135663 -1.791629 -6.095734 86.508358 -3.369309 -14.644439 -24.108910 3.935000 0.000000 -11.782800
19.228866 14.867433 1.955784 -149.138151 -86.540469 -171.850908 -9.296185 -1.353736 -1.353097 -14.850203 0.697394 -74.379113 -0.686495 5.792946 73.511744 3.624155 9.933464 -33.756834 -4.998000 -0.000000 -27.489400 10.781035 -0.007218 -4.069609 17.088628 -5.511519 -53.848143 -1.932503 -6.191479 87.651562 -3.233214 -13.667616 -24.329342 3.746599 -0.000000 -12.147900
19.061295 14.904840 1.968434 -144.365150 -86.143798 -176.664699 -9.285915 -1.260751 -1.568896 -14.515331 1.286367 -73.195871 -0.766806 5.749549 73.034586 3.659796 10.109724 -34.114364 -5.146299 0.000000 -28.200200 10.686492 0.381287 -3.916679 17.651453 -4.337316 -56.535477 -2.038566 -6.303924 88.499465 -3.134553 -12.868383 -24.573136 3.603101 0.000000 -12.251700
18.892610 14.941846 1.980575 -139.966626 -85.826256 178.888784 -9.265211 -1.205864 -1.806510 -14.183628 1.857094 -71.968431 -0.847967 5.692235 72.544875 3.684472 10.250230 -34.434670 -5.276500 0.000000 -28.940401 10.575702 0.734974 -3.754889 18.163126 -3.155148 -59.181481 -2.105778 -6.427048 89.035032 -3.084898 -12.292632 -24.875349 3.524900 0.000000 -11.996001
18.722801 14.978470 1.991805 -135.938222 -85.579566 174.806458 -9.244698 -1.182677 -2.062273 -13.868896 2.414696 -70.703156 -0.930434 5.624874 72.038706 3.699241 10.361732 -34.710997 -5.388500 -0.000000 -29.716300 10.438495 1.049541 -3.584779 18.609303 -1.981361 -61.773049 -2.130472 -6.553432 89.241709 -3.089756 -11.956419 -25.248507 3.519400 -0.000000 -11.363300
18.550892 15.014555 2.001743 -132.304688 -85.394739 171.120513 -9.231956 -1.182948 -2.330373 -13.583081 2.962073 -69.414677 -1.013772 5.551304 71.514720 3.705354 10.453120 -34.931595 -5.482500 0.000001 -30.566300 10.269144 1.322748 -3.403301 18.977359 -0.825588 -64.303620 -2.110062 -6.674842 89.104330 -3.148797 -11.848332 -25.680489 3.582500 -0.000000 -10.402600
18.376370 15.050070 2.009996 -129.067499 -85.265885 167.832537 -9.230202 -1.196294 -2.606238 -13.335003 3.503866 -68.110936 -1.098401 5.475211 70.972822 3.703550 10.526937 -35.095000 -5.558300 -0.000000 -31.435600 10.068552 1.554659 -3.211112 19.260236 0.289386 -66.757618 -2.042625 -6.784400 88.612582 -3.254063 -11.923394 -26.140167 3.698100 -0.000000 -9.257000
